<svg width="40" height="40" viewBox="0 0 40 40" fill="none" xmlns="http://www.w3.org/2000/svg">
<path fill-rule="evenodd" clip-rule="evenodd" d="M20 0.805176C8.95167 0.805176 0 9.75684 0 20.8052C0 29.6385 5.73 37.1385 13.6783 39.7835C14.6817 39.9668 15.045 39.3535 15.045 38.8202C15.045 38.3435 15.0267 37.0868 15.02 35.4202C9.45333 36.6252 8.28167 32.7385 8.28167 32.7385C7.37 30.4268 6.06167 29.8085 6.06167 29.8085C4.245 28.5718 6.19833 28.5985 6.19833 28.5985C8.20333 28.7418 9.25833 30.6552 9.25833 30.6552C11.0417 33.7152 13.9383 32.8302 15.0783 32.3218C15.2617 31.0268 15.7817 30.1468 16.3483 29.6468C11.9083 29.1452 7.24 27.4268 7.24 19.7635C7.24 17.5752 8.02167 15.7918 9.29667 14.3918C9.095 13.8918 8.405 11.8535 9.49167 9.10018C9.49167 9.10018 11.1717 8.56684 14.9933 11.1502C16.6253 10.7067 18.3088 10.4814 20 10.4802C21.7 10.4868 23.4117 10.7068 25.0067 11.1502C28.8283 8.56684 30.5017 9.10018 30.5017 9.10018C31.595 11.8535 30.9117 13.8918 30.7017 14.3918C31.985 15.7918 32.7533 17.5752 32.7533 19.7635C32.7533 27.4468 28.08 29.1318 23.6267 29.6335C24.3433 30.2452 24.98 31.4685 24.98 33.3318C24.98 36.0068 24.9617 38.1618 24.9617 38.8202C24.9617 39.3535 25.3183 39.9785 26.335 39.7835C34.2767 37.1335 40 29.6385 40 20.8052C40 9.75684 31.0483 0.805176 20 0.805176Z" fill="white"/>
</svg>
