<svg width="40" height="41" viewBox="0 0 40 41" fill="none" xmlns="http://www.w3.org/2000/svg">
<path d="M20 0.430298C25.434 0.430298 26.112 0.450298 28.244 0.550298C30.374 0.650298 31.824 0.984298 33.1 1.4803C34.42 1.9883 35.532 2.6763 36.644 3.7863C37.661 4.78609 38.4479 5.99548 38.95 7.3303C39.444 8.6043 39.78 10.0563 39.88 12.1863C39.974 14.3183 40 14.9963 40 20.4303C40 25.8643 39.98 26.5423 39.88 28.6743C39.78 30.8043 39.444 32.2543 38.95 33.5303C38.4494 34.8658 37.6622 36.0755 36.644 37.0743C35.6439 38.0909 34.4346 38.8778 33.1 39.3803C31.826 39.8743 30.374 40.2103 28.244 40.3103C26.112 40.4043 25.434 40.4303 20 40.4303C14.566 40.4303 13.888 40.4103 11.756 40.3103C9.626 40.2103 8.176 39.8743 6.9 39.3803C5.56465 38.8792 4.35505 38.0922 3.356 37.0743C2.33881 36.0747 1.55186 34.8652 1.05 33.5303C0.554 32.2563 0.22 30.8043 0.12 28.6743C0.0259999 26.5423 0 25.8643 0 20.4303C0 14.9963 0.0199999 14.3183 0.12 12.1863C0.22 10.0543 0.554 8.6063 1.05 7.3303C1.55047 5.99466 2.33761 4.78494 3.356 3.7863C4.35534 2.76876 5.56486 1.98176 6.9 1.4803C8.176 0.984298 9.624 0.650298 11.756 0.550298C13.888 0.456298 14.566 0.430298 20 0.430298ZM20 10.4303C17.3478 10.4303 14.8043 11.4839 12.9289 13.3592C11.0536 15.2346 10 17.7781 10 20.4303C10 23.0825 11.0536 25.626 12.9289 27.5014C14.8043 29.3767 17.3478 30.4303 20 30.4303C22.6522 30.4303 25.1957 29.3767 27.0711 27.5014C28.9464 25.626 30 23.0825 30 20.4303C30 17.7781 28.9464 15.2346 27.0711 13.3592C25.1957 11.4839 22.6522 10.4303 20 10.4303ZM33 9.9303C33 9.26726 32.7366 8.63137 32.2678 8.16253C31.7989 7.69369 31.163 7.4303 30.5 7.4303C29.837 7.4303 29.2011 7.69369 28.7322 8.16253C28.2634 8.63137 28 9.26726 28 9.9303C28 10.5933 28.2634 11.2292 28.7322 11.6981C29.2011 12.1669 29.837 12.4303 30.5 12.4303C31.163 12.4303 31.7989 12.1669 32.2678 11.6981C32.7366 11.2292 33 10.5933 33 9.9303ZM20 14.4303C21.5913 14.4303 23.1174 15.0624 24.2426 16.1877C25.3679 17.3129 26 18.839 26 20.4303C26 22.0216 25.3679 23.5477 24.2426 24.6729C23.1174 25.7982 21.5913 26.4303 20 26.4303C18.4087 26.4303 16.8826 25.7982 15.7574 24.6729C14.6321 23.5477 14 22.0216 14 20.4303C14 18.839 14.6321 17.3129 15.7574 16.1877C16.8826 15.0624 18.4087 14.4303 20 14.4303Z" fill="#EF3341"/>
</svg>
