<svg width="41" height="41" viewBox="0 0 41 41" fill="none" xmlns="http://www.w3.org/2000/svg">
<path d="M34.5819 34.8226H28.6552V25.5409C28.6552 23.3276 28.6156 20.4784 25.5727 20.4784C22.4858 20.4784 22.0134 22.89 22.0134 25.3798V34.822H16.0869V15.7351H21.7764V18.3436H21.8561C22.4255 17.37 23.2483 16.569 24.2369 16.0261C25.2254 15.4831 26.3428 15.2185 27.4698 15.2603C33.4769 15.2603 34.5844 19.2115 34.5844 24.3518L34.5819 34.8226ZM9.39937 13.1262C7.49984 13.1265 5.95969 11.5868 5.95937 9.6873C5.95906 7.78777 7.49859 6.24762 9.39812 6.2473C11.2977 6.24683 12.8378 7.78652 12.8381 9.68605C12.8383 10.5982 12.4761 11.4731 11.8312 12.1183C11.1863 12.7634 10.3116 13.126 9.39937 13.1262ZM12.3628 34.8228H6.42984V15.7351H12.3627V34.8226L12.3628 34.8228ZM37.5366 0.743085H3.45172C1.84078 0.72496 0.519687 2.01543 0.5 3.62637V37.8534C0.519063 39.4651 1.84 40.7568 3.45156 40.74H37.5366C39.1516 40.76 40.4777 39.4682 40.5 37.8534V3.62371C40.477 2.00965 39.1508 0.719335 37.5366 0.740428" fill="#1582BC"/>
</svg>
