<svg width="35" height="29" viewBox="0 0 35 29" fill="none" xmlns="http://www.w3.org/2000/svg">
<path d="M35 3.77638C33.7118 4.36194 32.3231 4.74674 30.8843 4.93078C32.3566 4.04406 33.4943 2.63871 34.0296 0.94894C32.641 1.78546 31.1018 2.37102 29.479 2.70563C28.1573 1.26682 26.3002 0.430298 24.1922 0.430298C20.2605 0.430298 17.0483 3.64254 17.0483 7.60764C17.0483 8.17647 17.1152 8.72858 17.2323 9.24722C11.2763 8.94607 5.97275 6.08517 2.44264 1.752C1.82361 2.80602 1.47228 4.04406 1.47228 5.34904C1.47228 7.84187 2.72706 10.0503 4.66778 11.3051C3.47992 11.3051 2.37572 10.9705 1.40535 10.4685V10.5187C1.40535 13.9987 3.88145 16.9097 7.16061 17.5622C6.10781 17.8503 5.00255 17.8904 3.93164 17.6793C4.38605 19.1056 5.27599 20.3535 6.47637 21.2478C7.67674 22.1421 9.12718 22.6377 10.6238 22.665C8.08686 24.6734 4.94215 25.759 1.7065 25.7434C1.13767 25.7434 0.568834 25.7099 0 25.643C3.17878 27.6841 6.95985 28.872 11.0086 28.872C24.1922 28.872 31.4364 17.9303 31.4364 8.44416C31.4364 8.12628 31.4364 7.82514 31.4197 7.50726C32.825 6.50343 34.0296 5.23192 35 3.77638Z" fill="#1582BC"/>
</svg>
